<?xml version="1.0" encoding="UTF-8" standalone="no"?>
<!-- Created with Inkscape (http://www.inkscape.org/) -->

<svg
   version="1.1"
   id="svg2"
   xml:space="preserve"
   width="569.7027"
   height="308.58801"
   viewBox="0 0 569.7027 308.58801"
   sodipodi:docname="Logo_FF.png.svg"
   inkscape:version="1.1.2 (0a00cf5339, 2022-02-04)"
   xmlns:inkscape="http://www.inkscape.org/namespaces/inkscape"
   xmlns:sodipodi="http://sodipodi.sourceforge.net/DTD/sodipodi-0.dtd"
   xmlns="http://www.w3.org/2000/svg"
   xmlns:svg="http://www.w3.org/2000/svg"><defs
     id="defs6"><clipPath
       clipPathUnits="userSpaceOnUse"
       id="clipPath16"><path
         d="M 0,231.441 H 427.277 V 0 H 0 Z"
         id="path14" /></clipPath></defs><sodipodi:namedview
     id="namedview4"
     pagecolor="#505050"
     bordercolor="#eeeeee"
     borderopacity="1"
     inkscape:pageshadow="0"
     inkscape:pageopacity="0"
     inkscape:pagecheckerboard="0"
     showgrid="false"
     inkscape:zoom="2.2502965"
     inkscape:cx="284.62916"
     inkscape:cy="154.42409"
     inkscape:window-width="1846"
     inkscape:window-height="1016"
     inkscape:window-x="74"
     inkscape:window-y="27"
     inkscape:window-maximized="1"
     inkscape:current-layer="g12" /><g
     id="g8"
     inkscape:groupmode="layer"
     inkscape:label="Logo_FF"
     transform="matrix(1.3333333,0,0,-1.3333333,0,308.588)"><g
       id="g10"><g
         id="g12"
         clip-path="url(#clipPath16)"
         transform="translate(4.4995902,-5.9052888)"><g
           id="g18"
           transform="translate(102.4926,47.4698)"><path
             d="m 0,0 0.567,1.116 c 0.979,-0.959 2.722,-1.664 4.524,-1.664 2.565,0 3.681,1.077 3.681,2.428 0,3.759 -8.44,1.449 -8.44,6.52 0,2.017 1.567,3.76 5.052,3.76 1.548,0 3.153,-0.45 4.249,-1.214 L 9.144,9.79 c -1.175,0.764 -2.546,1.136 -3.76,1.136 -2.506,0 -3.622,-1.116 -3.622,-2.486 0,-3.76 8.439,-1.489 8.439,-6.482 0,-2.016 -1.605,-3.74 -5.11,-3.74 C 3.035,-1.782 1.018,-1.057 0,0"
             style="fill:#8f96a3;fill-opacity:1;fill-rule:nonzero;stroke:none"
             id="path20" /></g><g
           id="g22"
           transform="translate(121.1687,46.4322)"><path
             d="m 0,0 c -0.549,-0.49 -1.371,-0.724 -2.174,-0.724 -1.938,0 -3.015,1.096 -3.015,2.996 v 6.226 h -1.84 v 1.175 h 1.84 v 2.251 h 1.39 V 9.673 h 3.133 V 8.498 H -3.799 V 2.349 c 0,-1.214 0.627,-1.88 1.782,-1.88 0.567,0 1.136,0.177 1.527,0.529 z"
             style="fill:#8f96a3;fill-opacity:1;fill-rule:nonzero;stroke:none"
             id="path24" /></g><g
           id="g26"
           transform="translate(133.1682,56.1048)"><path
             d="m 0,0 v -10.299 h -1.332 v 1.88 c -0.724,-1.254 -2.056,-1.978 -3.701,-1.978 -2.623,0 -4.347,1.469 -4.347,4.425 V 0 h 1.391 v -5.835 c 0,-2.193 1.136,-3.309 3.094,-3.309 2.154,0 3.505,1.39 3.505,3.74 V 0 Z"
             style="fill:#8f96a3;fill-opacity:1;fill-rule:nonzero;stroke:none"
             id="path28" /></g><g
           id="g30"
           transform="translate(145.2844,50.9552)"><path
             d="m 0,0 c 0,2.409 -1.645,4.014 -3.818,4.014 -2.193,0 -3.838,-1.605 -3.838,-4.014 0,-2.409 1.645,-4.014 3.838,-4.014 C -1.645,-4.014 0,-2.409 0,0 M 1.371,9.38 V -5.15 H 0.039 v 2.037 c -0.842,-1.391 -2.271,-2.134 -3.975,-2.134 -2.937,0 -5.13,2.134 -5.13,5.247 0,3.114 2.193,5.228 5.13,5.228 1.645,0 3.055,-0.705 3.916,-2.037 V 9.38 Z"
             style="fill:#8f96a3;fill-opacity:1;fill-rule:nonzero;stroke:none"
             id="path32" /></g><g
           id="g34"
           transform="translate(151.0765,51.5627)"><path
             d="M 0,0 H 7.303 C 7.127,2.017 5.658,3.426 3.642,3.426 1.645,3.426 0.176,2.017 0,0 M 8.615,-1.039 H 0 c 0.156,-2.153 1.801,-3.583 4.053,-3.583 1.253,0 2.369,0.45 3.153,1.352 L 7.988,-4.172 C 7.069,-5.267 5.639,-5.855 4.014,-5.855 c -3.211,0 -5.404,2.193 -5.404,5.248 0,3.054 2.134,5.228 5.032,5.228 2.898,0 4.993,-2.135 4.993,-5.228 0,-0.118 -0.02,-0.274 -0.02,-0.432"
             style="fill:#8f96a3;fill-opacity:1;fill-rule:nonzero;stroke:none"
             id="path36" /></g><g
           id="g38"
           transform="translate(172.2186,51.7772)"><path
             d="m 0,0 v -5.972 h -1.39 v 5.835 c 0,2.174 -1.135,3.29 -3.094,3.29 -2.212,0 -3.602,-1.371 -3.602,-3.72 v -5.405 h -1.39 v 10.3 h 1.331 V 2.429 c 0.744,1.253 2.134,1.977 3.916,1.977 C -1.723,4.406 0,2.958 0,0"
             style="fill:#8f96a3;fill-opacity:1;fill-rule:nonzero;stroke:none"
             id="path40" /></g><g
           id="g42"
           transform="translate(181.613,46.4322)"><path
             d="m 0,0 c -0.548,-0.49 -1.37,-0.724 -2.173,-0.724 -1.939,0 -3.016,1.096 -3.016,2.996 v 6.226 h -1.84 v 1.175 h 1.84 v 2.251 h 1.39 V 9.673 h 3.133 V 8.498 H -3.799 V 2.349 c 0,-1.214 0.627,-1.88 1.782,-1.88 0.568,0 1.137,0.177 1.527,0.529 z"
             style="fill:#8f96a3;fill-opacity:1;fill-rule:nonzero;stroke:none"
             id="path44" /></g><g
           id="g46"
           transform="translate(192.6131,58.2585)"><path
             d="M 0,0 H -4.817 V 1.253 H 6.266 V 0 H 1.449 V -12.453 H 0 Z"
             style="fill:#8f96a3;fill-opacity:1;fill-rule:nonzero;stroke:none"
             id="path48" /></g><g
           id="g50"
           transform="translate(200.3635,51.5627)"><path
             d="M 0,0 H 7.304 C 7.128,2.017 5.659,3.426 3.643,3.426 1.645,3.426 0.176,2.017 0,0 M 8.616,-1.039 H 0 c 0.157,-2.153 1.802,-3.583 4.054,-3.583 1.253,0 2.369,0.45 3.152,1.352 l 0.783,-0.902 c -0.92,-1.095 -2.35,-1.683 -3.975,-1.683 -3.211,0 -5.404,2.193 -5.404,5.248 0,3.054 2.134,5.228 5.033,5.228 2.898,0 4.992,-2.135 4.992,-5.228 0,-0.118 -0.019,-0.274 -0.019,-0.432"
             style="fill:#8f96a3;fill-opacity:1;fill-rule:nonzero;stroke:none"
             id="path52" /></g><g
           id="g54"
           transform="translate(218.1189,48.8992)"><path
             d="m 0,0 v 1.684 h -3.231 c -1.997,0 -2.643,-0.783 -2.643,-1.84 0,-1.195 0.959,-1.939 2.604,-1.939 1.567,0 2.722,0.744 3.27,2.095 M 1.39,3.29 V -3.094 H 0.058 v 1.606 c -0.626,-1.058 -1.84,-1.703 -3.543,-1.703 -2.33,0 -3.76,1.214 -3.76,2.996 0,1.585 1.019,2.917 3.975,2.917 H 0 V 3.348 C 0,5.11 -0.998,6.07 -2.917,6.07 -4.249,6.07 -5.502,5.6 -6.344,4.856 l -0.627,1.038 c 1.039,0.88 2.566,1.39 4.191,1.39 2.663,0 4.17,-1.332 4.17,-3.994"
             style="fill:#8f96a3;fill-opacity:1;fill-rule:nonzero;stroke:none"
             id="path56" /></g><g
           id="g58"
           transform="translate(240.477,51.7772)"><path
             d="m 0,0 v -5.972 h -1.39 v 5.835 c 0,2.174 -1.097,3.29 -2.957,3.29 -2.115,0 -3.446,-1.371 -3.446,-3.72 v -5.405 h -1.39 v 5.835 c 0,2.174 -1.097,3.29 -2.977,3.29 -2.095,0 -3.446,-1.371 -3.446,-3.72 v -5.405 h -1.39 v 10.3 h 1.332 v -1.88 c 0.724,1.234 2.056,1.958 3.778,1.958 1.704,0 3.035,-0.724 3.662,-2.174 0.744,1.332 2.212,2.174 4.073,2.174 C -1.645,4.406 0,2.958 0,0"
             style="fill:#8f96a3;fill-opacity:1;fill-rule:nonzero;stroke:none"
             id="path60" /></g><g
           id="g62"
           transform="translate(243.0151,46.9802)"><path
             d="M 0,0 0.627,1.097 C 1.45,0.45 2.84,-0.058 4.288,-0.058 c 1.959,0 2.761,0.665 2.761,1.684 0,2.681 -6.676,0.567 -6.676,4.64 0,1.684 1.448,2.937 4.072,2.937 1.331,0 2.781,-0.371 3.642,-0.96 L 7.48,7.128 C 6.579,7.755 5.502,8.008 4.445,8.008 2.585,8.008 1.763,7.284 1.763,6.305 1.763,3.525 8.44,5.62 8.44,1.664 8.44,-0.117 6.873,-1.272 4.191,-1.272 2.487,-1.272 0.842,-0.724 0,0"
             style="fill:#8f96a3;fill-opacity:1;fill-rule:nonzero;stroke:none"
             id="path64" /></g><g
           id="g66"
           transform="translate(262.492,58.2585)"><path
             d="M 0,0 H -4.816 V 1.253 H 6.266 V 0 H 1.45 V -12.453 H 0 Z"
             style="fill:#8f96a3;fill-opacity:1;fill-rule:nonzero;stroke:none"
             id="path68" /></g><g
           id="g70"
           transform="translate(285.4183,56.1048)"><path
             d="m 0,0 -3.896,-10.299 h -1.312 l -3.251,8.439 -3.251,-8.439 h -1.311 L -16.897,0 h 1.33 L -12.336,-8.752 -9.027,0 h 1.195 l 3.29,-8.752 3.27,8.752 z"
             style="fill:#8f96a3;fill-opacity:1;fill-rule:nonzero;stroke:none"
             id="path72" /></g><g
           id="g74"
           transform="translate(287.7632,51.5627)"><path
             d="M 0,0 H 7.303 C 7.127,2.017 5.659,3.426 3.643,3.426 1.645,3.426 0.176,2.017 0,0 M 8.616,-1.039 H 0 c 0.157,-2.153 1.801,-3.583 4.054,-3.583 1.253,0 2.369,0.45 3.152,1.352 l 0.783,-0.902 c -0.92,-1.095 -2.35,-1.683 -3.975,-1.683 -3.211,0 -5.404,2.193 -5.404,5.248 0,3.054 2.134,5.228 5.033,5.228 2.897,0 4.992,-2.135 4.992,-5.228 0,-0.118 -0.019,-0.274 -0.019,-0.432"
             style="fill:#8f96a3;fill-opacity:1;fill-rule:nonzero;stroke:none"
             id="path76" /></g><g
           id="g78"
           transform="translate(308.9063,51.7772)"><path
             d="m 0,0 v -5.972 h -1.39 v 5.835 c 0,2.174 -1.135,3.29 -3.094,3.29 -2.213,0 -3.603,-1.371 -3.603,-3.72 v -5.405 h -1.39 v 10.3 h 1.332 V 2.429 c 0.744,1.253 2.134,1.977 3.916,1.977 C -1.723,4.406 0,2.958 0,0"
             style="fill:#8f96a3;fill-opacity:1;fill-rule:nonzero;stroke:none"
             id="path80" /></g><g
           id="g82"
           transform="translate(318.3007,46.4322)"><path
             d="m 0,0 c -0.548,-0.49 -1.37,-0.724 -2.173,-0.724 -1.938,0 -3.015,1.096 -3.015,2.996 v 6.226 h -1.841 v 1.175 h 1.841 v 2.251 h 1.39 V 9.673 h 3.133 V 8.498 H -3.798 V 2.349 c 0,-1.214 0.627,-1.88 1.781,-1.88 0.568,0 1.137,0.177 1.528,0.529 z"
             style="fill:#8f96a3;fill-opacity:1;fill-rule:nonzero;stroke:none"
             id="path84" /></g><g
           id="g86"
           transform="translate(321.0002,51.5627)"><path
             d="M 0,0 H 7.303 C 7.127,2.017 5.659,3.426 3.643,3.426 1.645,3.426 0.176,2.017 0,0 M 8.616,-1.039 H 0 c 0.157,-2.153 1.801,-3.583 4.054,-3.583 1.253,0 2.369,0.45 3.152,1.352 l 0.783,-0.902 c -0.92,-1.095 -2.35,-1.683 -3.975,-1.683 -3.211,0 -5.404,2.193 -5.404,5.248 0,3.054 2.134,5.228 5.033,5.228 2.897,0 4.992,-2.135 4.992,-5.228 0,-0.118 -0.019,-0.274 -0.019,-0.432"
             style="fill:#8f96a3;fill-opacity:1;fill-rule:nonzero;stroke:none"
             id="path88" /></g><g
           id="g90"
           transform="translate(121.5782,83.9039)"><path
             d="m 0,0 c -3.502,0 -6.377,2.829 -6.377,6.377 0,3.503 2.875,6.332 6.377,6.332 3.503,0 6.377,-2.829 6.377,-6.332 C 6.377,2.829 3.503,0 0,0 m 13.517,19.894 c -1.527,1.527 -3.278,2.784 -5.254,3.682 H 8.218 C 5.748,24.789 2.964,25.462 0,25.462 c -2.964,0 -5.748,-0.673 -8.218,-1.886 h -0.045 c -6.422,-3.053 -10.823,-9.61 -10.823,-17.199 0,-7.635 4.446,-14.191 10.868,-17.245 2.47,-1.167 5.254,-1.841 8.218,-1.841 2.964,0 5.748,0.674 8.218,1.841 1.167,-1.122 2.74,-1.841 4.536,-1.841 3.502,0 6.332,2.829 6.332,6.332 V 6.377 c 0,5.299 -2.111,10.059 -5.569,13.517"
             style="fill:#8f96a3;fill-opacity:1;fill-rule:nonzero;stroke:none"
             id="path92" /></g><g
           id="g94"
           transform="translate(250.2378,83.9039)"><path
             d="m 0,0 c -3.548,0 -6.377,2.829 -6.377,6.377 0,3.503 2.829,6.332 6.377,6.332 3.503,0 6.332,-2.829 6.332,-6.332 C 6.332,2.829 3.503,0 0,0 m 13.517,19.894 c -1.527,1.527 -3.323,2.784 -5.299,3.682 -2.47,1.213 -5.299,1.886 -8.218,1.886 -2.919,0 -5.748,-0.673 -8.218,-1.886 -6.422,-3.053 -10.868,-9.61 -10.868,-17.199 0,-7.59 4.446,-14.146 10.868,-17.245 2.47,-1.167 5.299,-1.841 8.218,-1.841 2.919,0 5.748,0.674 8.218,1.841 1.976,0.943 3.772,2.201 5.299,3.728 3.413,3.458 5.569,8.218 5.569,13.517 0,5.299 -2.156,10.059 -5.569,13.517"
             style="fill:#8f96a3;fill-opacity:1;fill-rule:nonzero;stroke:none"
             id="path96" /></g><g
           id="g98"
           transform="translate(183.55,77.5269)"><path
             d="m 0,0 c 0,-3.503 -2.829,-6.377 -6.376,-6.377 h -12.71 c -5.253,0 -10.059,2.156 -13.517,5.569 -3.412,3.458 -5.568,8.263 -5.568,13.517 0,10.553 8.533,19.085 19.085,19.085 h 12.71 C -2.829,31.794 0,28.965 0,25.463 0,21.915 -2.829,19.086 -6.376,19.086 h -12.71 c -3.502,0 -6.376,-2.829 -6.376,-6.377 0,-3.503 2.874,-6.332 6.376,-6.332 h 12.71 C -2.829,6.377 0,3.503 0,0"
             style="fill:#8f96a3;fill-opacity:1;fill-rule:nonzero;stroke:none"
             id="path100" /></g><g
           id="g102"
           transform="translate(312.2551,90.2357)"><path
             d="m 0,0 c 0,-3.503 -2.875,-6.377 -6.378,-6.377 -3.502,0 -6.376,2.874 -6.376,6.377 0,3.548 -2.829,6.377 -6.332,6.377 -3.547,0 -6.377,-2.829 -6.377,-6.377 v -12.709 c 0,-3.502 -2.874,-6.377 -6.377,-6.377 -3.503,0 -6.376,2.875 -6.376,6.377 V 0 c 0,7.589 4.446,14.146 10.867,17.2 2.47,1.257 5.299,1.931 8.263,1.931 5.254,0 10.015,-2.156 13.473,-5.614 C -2.156,10.059 0,5.254 0,0"
             style="fill:#8f96a3;fill-opacity:1;fill-rule:nonzero;stroke:none"
             id="path104" /></g><g
           id="g106"
           transform="translate(183.505,153.9593)"><path
             d="m 0,0 v -12.754 c 0,-5.299 -2.111,-10.059 -5.568,-13.517 -3.458,-3.458 -8.218,-5.568 -13.518,-5.568 -10.552,0 -19.085,8.532 -19.085,19.085 V 0 c 0,3.503 2.874,6.332 6.377,6.332 3.503,0 6.377,-2.829 6.377,-6.332 v -12.754 c 0,-3.502 2.829,-6.377 6.331,-6.377 3.548,0 6.378,2.875 6.378,6.377 V 0 c 0,3.503 2.829,6.332 6.376,6.332 C -2.829,6.332 0,3.503 0,0"
             style="fill:#8f96a3;fill-opacity:1;fill-rule:nonzero;stroke:none"
             id="path108" /></g><g
           id="g110"
           transform="translate(269.3234,153.9593)"><path
             d="m 0,0 v -12.754 c 0,-5.299 -2.155,-10.059 -5.568,-13.517 -3.458,-3.458 -8.264,-5.568 -13.518,-5.568 -10.553,0 -19.085,8.532 -19.085,19.085 V 0 c 0,3.503 2.829,6.332 6.331,6.332 3.548,0 6.377,-2.829 6.377,-6.332 v -12.754 c 0,-3.502 2.874,-6.377 6.377,-6.377 3.503,0 6.377,2.875 6.377,6.377 V 0 c 0,3.503 2.83,6.332 6.332,6.332 C -2.829,6.332 0,3.503 0,0"
             style="fill:#8f96a3;fill-opacity:1;fill-rule:nonzero;stroke:none"
             id="path112" /></g><g
           id="g114"
           transform="translate(312.2551,141.2057)"><path
             d="m 0,0 c 0,-3.503 -2.875,-6.377 -6.378,-6.377 -3.502,0 -6.376,2.874 -6.376,6.377 -0.045,3.548 -2.829,6.332 -6.332,6.332 -3.547,0 -6.377,-2.829 -6.377,-6.377 v -12.709 c 0,-3.502 -2.874,-6.377 -6.377,-6.377 -3.503,0 -6.376,2.875 -6.376,6.377 v 12.709 c 0,7.589 4.446,14.146 10.867,17.199 2.47,1.258 5.299,1.932 8.263,1.932 5.254,0 10.015,-2.156 13.473,-5.614 C -2.156,10.014 0,5.254 0,0"
             style="fill:#8f96a3;fill-opacity:1;fill-rule:nonzero;stroke:none"
             id="path116" /></g><g
           id="g118"
           transform="translate(342.3765,90.2357)"><path
             d="m 0,0 v -17.963 c -2.021,-0.718 -4.132,-1.123 -6.377,-1.123 -10.553,0 -19.086,8.533 -19.086,19.086 v 12.754 c 0,3.502 2.83,6.332 6.377,6.332 3.503,0 6.332,-2.83 6.332,-6.332 V 0 c 0,-3.503 2.875,-6.332 6.377,-6.332 C -2.874,-6.332 0,-3.503 0,0"
             style="fill:#8f96a3;fill-opacity:1;fill-rule:nonzero;stroke:none"
             id="path120" /></g><g
           id="g122"
           transform="translate(355.0851,102.9896)"><path
             d="m 0,0 v -12.754 c 0,-5.254 -2.155,-10.059 -5.568,-13.517 -1.977,-1.976 -4.446,-3.503 -7.141,-4.446 V 0 c 0,3.503 2.829,6.332 6.377,6.332 C -2.829,6.332 0,3.503 0,0"
             style="fill:#4c5469;fill-opacity:1;fill-rule:nonzero;stroke:none"
             id="path124" /></g><g
           id="g126"
           transform="translate(355.0851,90.2357)"><path
             d="m 0,0 v -38.171 c 0,-3.503 -2.829,-6.377 -6.332,-6.377 -3.548,0 -6.377,2.874 -6.377,6.377 v 20.208 c 2.695,0.943 5.164,2.47 7.141,4.446 C -2.155,-10.059 0,-5.254 0,0"
             style="fill:#546c88;fill-opacity:1;fill-rule:nonzero;stroke:none"
             id="path128" /></g><g
           id="g130"
           transform="translate(226.4817,90.2807)"><path
             d="m 0,0 c 0,-5.254 -2.155,-10.059 -5.613,-13.517 -3.458,-3.458 -8.218,-5.614 -13.473,-5.614 -2.963,0 -5.793,0.674 -8.262,1.931 -6.422,3.054 -10.868,9.611 -10.868,17.2 v 12.709 c 0,-3.503 2.874,-6.377 6.377,-6.377 h 6.377 V 0 c 0,-3.548 2.829,-6.377 6.376,-6.377 3.503,0 6.332,2.829 6.332,6.377 0,3.503 2.875,6.377 6.378,6.377 C -2.874,6.377 0,3.503 0,0"
             style="fill:#8f96a3;fill-opacity:1;fill-rule:nonzero;stroke:none"
             id="path132" /></g><g
           id="g134"
           transform="translate(201.0195,115.6981)"><path
             d="m 0,0 v -6.332 h -6.377 c -3.503,0 -6.377,-2.874 -6.377,-6.377 V 0 c 0,3.503 2.874,6.377 6.377,6.377 C -2.875,6.377 0,3.503 0,0"
             style="fill:#8f96a3;fill-opacity:1;fill-rule:nonzero;stroke:none"
             id="path136" /></g><g
           id="g138"
           transform="translate(213.7731,102.9896)"><path
             d="m 0,0 c 0,-3.503 -2.829,-6.377 -6.377,-6.377 h -6.377 V 6.377 h 6.377 C -2.829,6.377 0,3.503 0,0"
             style="fill:#a2cb74;fill-opacity:1;fill-rule:nonzero;stroke:none"
             id="path140" /></g><g
           id="g142"
           transform="translate(201.0195,109.3663)"><path
             d="m 0,0 v -12.754 h -6.377 c -3.503,0 -6.377,2.874 -6.377,6.377 0,3.503 2.874,6.377 6.377,6.377 z"
             style="fill:#668d54;fill-opacity:1;fill-rule:nonzero;stroke:none"
             id="path144" /></g><g
           id="g146"
           transform="translate(127.868,173.0609)"><path
             d="m 0,0 v -12.733 h -6.367 c -3.501,-0.023 -6.343,-2.842 -6.343,-6.344 V 6.344 C -12.71,2.842 -9.868,0 -6.367,0 Z"
             style="fill:#8f96a3;fill-opacity:1;fill-rule:nonzero;stroke:none"
             id="path148" /></g><g
           id="g150"
           transform="translate(127.868,147.6173)"><path
             d="m 0,0 v -19.145 c 0,-3.616 -3.001,-6.526 -6.639,-6.344 -3.479,0.136 -6.071,3.274 -6.071,6.753 V 6.367 c 0,-3.525 2.842,-6.344 6.343,-6.367 z"
             style="fill:#8f96a3;fill-opacity:1;fill-rule:nonzero;stroke:none"
             id="path152" /></g><g
           id="g154"
           transform="translate(127.868,179.3985)"><path
             d="m 0,0 v -6.367 h -6.367 c -3.501,0 -6.343,2.843 -6.343,6.344 0,0.25 0,0.501 0.045,0.728 0.023,0.25 0.068,0.477 0.136,0.705 0.023,0.159 0.069,0.318 0.114,0.477 0.364,1.183 1.069,2.206 2.024,2.979 0.159,0.136 0.318,0.25 0.477,0.364 0.341,0.25 0.705,0.432 1.069,0.614 0.387,0.159 0.796,0.272 1.205,0.364 0.41,0.09 0.841,0.136 1.273,0.136 C -2.865,6.344 -0.023,3.502 0,0"
             style="fill:#ca4c4e;fill-opacity:1;fill-rule:nonzero;stroke:none"
             id="path156" /></g><g
           id="g158"
           transform="translate(153.289,179.1319)"><path
             d="m 0,0 c -0.159,-3.479 -3.297,-6.071 -6.776,-6.071 h -18.645 v 6.367 c -0.023,3.501 -2.865,6.344 -6.367,6.344 H -6.367 C -2.751,6.64 0.159,3.638 0,0"
             style="fill:#ec6163;fill-opacity:1;fill-rule:nonzero;stroke:none"
             id="path160" /></g><g
           id="g162"
           transform="translate(127.868,160.3278)"><path
             d="m 0,0 v -12.71 h -6.367 c -3.501,0.022 -6.343,2.842 -6.343,6.366 0,3.502 2.842,6.321 6.343,6.344 z"
             style="fill:#614a70;fill-opacity:1;fill-rule:nonzero;stroke:none"
             id="path164" /></g><g
           id="g166"
           transform="translate(140.5786,153.6882)"><path
             d="m 0,0 c -0.159,-3.479 -3.297,-6.071 -6.776,-6.071 h -5.935 V 6.64 h 6.344 C -2.751,6.64 0.159,3.638 0,0"
             style="fill:#c19bc8;fill-opacity:1;fill-rule:nonzero;stroke:none"
             id="path168" /></g><g
           id="g170"
           transform="translate(84.9804,122.1358)"><path
             d="m 0,0 v -12.733 h -6.367 c -3.501,-0.023 -6.343,-2.842 -6.343,-6.344 V 6.344 C -12.71,2.842 -9.868,0 -6.367,0 Z"
             style="fill:#8f96a3;fill-opacity:1;fill-rule:nonzero;stroke:none"
             id="path172" /></g><g
           id="g174"
           transform="translate(84.9804,96.6923)"><path
             d="m 0,0 v -19.145 c 0,-3.616 -3.001,-6.526 -6.639,-6.344 -3.479,0.136 -6.071,3.274 -6.071,6.753 V 6.367 c 0,-3.525 2.842,-6.344 6.343,-6.367 z"
             style="fill:#8f96a3;fill-opacity:1;fill-rule:nonzero;stroke:none"
             id="path176" /></g><g
           id="g178"
           transform="translate(84.9804,128.4735)"><path
             d="m 0,0 v -6.367 h -6.367 c -3.501,0 -6.343,2.843 -6.343,6.344 0,0.25 0,0.501 0.045,0.728 0.023,0.25 0.068,0.477 0.136,0.705 0.023,0.159 0.069,0.318 0.114,0.477 0.364,1.183 1.069,2.206 2.024,2.979 0.159,0.136 0.318,0.25 0.477,0.364 0.341,0.25 0.705,0.432 1.069,0.614 0.387,0.159 0.796,0.272 1.205,0.364 0.41,0.09 0.841,0.136 1.273,0.136 C -2.865,6.344 -0.023,3.502 0,0"
             style="fill:#ca4c4e;fill-opacity:1;fill-rule:nonzero;stroke:none"
             id="path180" /></g><g
           id="g182"
           transform="translate(110.4013,128.1779)"><path
             d="m 0,0 c -0.159,-3.479 -3.297,-6.071 -6.776,-6.071 h -18.645 v 6.367 c -0.023,3.501 -2.865,6.344 -6.367,6.344 H -6.367 C -2.751,6.64 0.159,3.638 0,0"
             style="fill:#ec6163;fill-opacity:1;fill-rule:nonzero;stroke:none"
             id="path184" /></g><g
           id="g186"
           transform="translate(84.9804,109.4027)"><path
             d="m 0,0 v -12.71 h -6.367 c -3.501,0.022 -6.343,2.842 -6.343,6.366 0,3.502 2.842,6.321 6.343,6.344 z"
             style="fill:#614a70;fill-opacity:1;fill-rule:nonzero;stroke:none"
             id="path188" /></g><g
           id="g190"
           transform="translate(97.691,102.7632)"><path
             d="m 0,0 c -0.159,-3.479 -3.297,-6.071 -6.776,-6.071 h -5.935 V 6.64 h 6.344 C -2.751,6.64 0.159,3.638 0,0"
             style="fill:#c19bc8;fill-opacity:1;fill-rule:nonzero;stroke:none"
             id="path192" /></g><g
           id="g194"
           transform="translate(355.0765,128.4645)"><path
             d="m 0,0 c 0,-3.502 -2.82,-6.389 -6.367,-6.389 h -12.71 c -5.253,0 -10.05,2.16 -13.506,5.57 -3.434,3.457 -5.571,8.277 -5.571,13.529 0,10.551 8.527,19.078 19.077,19.078 h 12.733 c 0.887,0 1.705,-0.182 2.478,-0.501 0.569,-0.227 1.092,-0.545 1.547,-0.932 1.091,-0.91 1.887,-2.183 2.183,-3.615 C -0.046,26.33 0,25.898 0,25.466 0,21.896 -2.82,19.077 -6.367,19.077 h -12.71 c -1.751,0 -3.342,-0.705 -4.502,-1.864 l -0.023,-0.023 -1.091,-1.478 c -0.205,-0.364 -0.364,-0.75 -0.478,-1.137 l -0.273,-1.887 c 0,-1.319 0.41,-2.547 1.092,-3.547 1.159,-1.683 3.092,-2.774 5.275,-2.774 h 12.71 C -2.82,6.367 0,3.502 0,0"
             style="fill:#8f96a3;fill-opacity:1;fill-rule:nonzero;stroke:none"
             id="path196" /></g><g
           id="g198"
           transform="translate(355.0765,153.9308)"><path
             d="m 0,0 c 0,-3.57 -2.82,-6.389 -6.367,-6.389 h -12.71 c -1.751,0 -3.342,-0.705 -4.502,-1.865 l 12.71,12.711 c 1.16,1.159 2.729,1.864 4.502,1.864 h 0.023 c 0.887,0 1.705,-0.182 2.478,-0.5 C -3.32,5.594 -2.797,5.275 -2.319,4.889 -1.228,3.979 -0.432,2.706 -0.136,1.273 -0.046,0.864 0,0.432 0,0"
             style="fill:#446e94;fill-opacity:1;fill-rule:nonzero;stroke:none"
             id="path200" /></g><g
           id="g202"
           transform="translate(354.9402,155.2041)"><path
             d="m 0,0 c 0.091,-0.409 0.136,-0.841 0.136,-1.273 0,-3.57 -2.819,-6.39 -6.366,-6.39 h -12.711 c -0.439,0 -0.868,-0.044 -1.282,-0.129 -0.19,-0.039 -0.365,-0.114 -0.549,-0.17 -0.216,-0.065 -0.439,-0.113 -0.644,-0.2 -1.293,-0.545 -2.346,-1.519 -3.038,-2.726 l -0.103,-0.14 c -0.035,-0.071 -0.059,-0.15 -0.093,-0.222 -0.104,-0.212 -0.194,-0.429 -0.275,-0.654 -0.034,-0.089 -0.078,-0.167 -0.109,-0.261 l -0.025,-0.172 c -0.152,-0.546 -0.26,-1.109 -0.26,-1.704 0,-0.148 0.034,-0.288 0.044,-0.434 0.015,-0.218 0.029,-0.435 0.065,-0.646 0.033,-0.19 0.081,-0.373 0.13,-0.557 0.046,-0.171 0.097,-0.339 0.157,-0.504 0.066,-0.186 0.134,-0.369 0.217,-0.546 0.064,-0.138 0.142,-0.266 0.215,-0.397 1.09,-1.955 3.153,-3.293 5.55,-3.293 0.155,0 0.3,0.034 0.452,0.045 h 0.321 c 0.102,0.013 0.198,0.045 0.299,0.063 0.15,0.025 0.297,0.057 0.444,0.092 0.246,0.061 0.485,0.137 0.721,0.224 0.122,0.046 0.245,0.087 0.363,0.14 0.329,0.145 0.642,0.314 0.938,0.51 0.011,0.007 0.023,0.012 0.033,0.019 0.333,0.223 0.65,0.467 0.931,0.748 l 12.734,12.733 c 1.159,1.16 1.864,2.752 1.864,4.525 C 0.159,-0.864 0.114,-0.432 0,0"
             style="fill:#5a93c6;fill-opacity:1;fill-rule:nonzero;stroke:none"
             id="path204" /></g><g
           id="g206"
           transform="translate(226.4817,141.2505)"><path
             d="m 0,0 c 0,-5.254 -2.155,-10.059 -5.613,-13.517 -3.458,-3.458 -8.218,-5.614 -13.473,-5.614 -2.963,0 -5.793,0.674 -8.262,1.931 -6.422,3.054 -10.868,9.611 -10.868,17.2 v 12.709 c 0,-3.503 2.874,-6.377 6.377,-6.377 h 6.377 V 0 c 0,-3.548 2.829,-6.377 6.376,-6.377 3.503,0 6.332,2.829 6.332,6.377 0,3.503 2.875,6.377 6.378,6.377 C -2.874,6.377 0,3.503 0,0"
             style="fill:#8f96a3;fill-opacity:1;fill-rule:nonzero;stroke:none"
             id="path208" /></g><g
           id="g210"
           transform="translate(213.7731,153.9594)"><path
             d="m 0,0 c 0,-3.503 -2.829,-6.377 -6.377,-6.377 h -6.377 V 6.377 h 6.377 C -2.829,6.377 0,3.503 0,0"
             style="fill:#a2cb74;fill-opacity:1;fill-rule:nonzero;stroke:none"
             id="path212" /></g><g
           id="g214"
           transform="translate(201.0195,160.3362)"><path
             d="m 0,0 v -12.754 h -6.377 c -3.503,0 -6.377,2.874 -6.377,6.377 0,3.503 2.874,6.377 6.377,6.377 z"
             style="fill:#668d54;fill-opacity:1;fill-rule:nonzero;stroke:none"
             id="path216" /></g><g
           id="g218"
           transform="translate(201.0195,166.668)"><path
             d="m 0,0 v -6.332 h -6.377 c -3.503,0 -6.377,-2.874 -6.377,-6.377 V 0 c 0,3.503 2.874,6.377 6.377,6.377 C -2.875,6.377 0,3.503 0,0"
             style="fill:#8f96a3;fill-opacity:1;fill-rule:nonzero;stroke:none"
             id="path220" /></g><g
           id="g222"
           transform="translate(84.7043,188.9838)"><path
             d="m 0,0 c 0,-3.345 -2.712,-6.057 -6.057,-6.057 -3.346,0 -6.058,2.712 -6.058,6.057 0,3.345 2.712,6.057 6.058,6.057 C -2.712,6.057 0,3.345 0,0"
             style="fill:#a2cb74;fill-opacity:1;fill-rule:nonzero;stroke:none"
             id="path224" /></g><g
           id="g226"
           transform="translate(97.8675,179.4202)"><path
             d="m 0,0 c 0,-3.345 -2.712,-6.057 -6.057,-6.057 -3.346,0 -6.058,2.712 -6.058,6.057 0,3.345 2.712,6.057 6.058,6.057 C -2.712,6.057 0,3.345 0,0"
             style="fill:#5a93c6;fill-opacity:1;fill-rule:nonzero;stroke:none"
             id="path228" /></g><g
           id="g230"
           transform="translate(92.8396,163.946)"><path
             d="m 0,0 c 0,-3.345 -2.712,-6.057 -6.057,-6.057 -3.346,0 -6.058,2.712 -6.058,6.057 0,3.345 2.712,6.057 6.058,6.057 C -2.712,6.057 0,3.345 0,0"
             style="fill:#ec6163;fill-opacity:1;fill-rule:nonzero;stroke:none"
             id="path232" /></g><g
           id="g234"
           transform="translate(76.569,163.946)"><path
             d="m 0,0 c 0,-3.345 -2.712,-6.057 -6.057,-6.057 -3.346,0 -6.058,2.712 -6.058,6.057 0,3.345 2.712,6.057 6.058,6.057 C -2.712,6.057 0,3.345 0,0"
             style="fill:#4c5469;fill-opacity:1;fill-rule:nonzero;stroke:none"
             id="path236" /></g><g
           id="g238"
           transform="translate(71.5411,179.4202)"><path
             d="m 0,0 c 0,-3.345 -2.712,-6.057 -6.057,-6.057 -3.346,0 -6.058,2.712 -6.058,6.057 0,3.345 2.712,6.057 6.058,6.057 C -2.712,6.057 0,3.345 0,0"
             style="fill:#c19bc8;fill-opacity:1;fill-rule:nonzero;stroke:none"
             id="path240" /></g></g></g></g></svg>
