<svg id="Layer_1" data-name="Layer 1" xmlns="http://www.w3.org/2000/svg" xmlns:xlink="http://www.w3.org/1999/xlink" viewBox="0 0 270.08 51.75"><defs><style>.cls-1{fill:none;}.cls-2{clip-path:url(#clip-path);}.cls-3{fill:#282b2b;}.cls-4{fill:#5cc6cb;}</style><clipPath id="clip-path" transform="translate(0 0)"><rect class="cls-1" width="270.08" height="51.75"/></clipPath></defs><title>Hydriven logo_turquoise-black</title><g class="cls-2"><path class="cls-3" d="M123.32,17.67a6.64,6.64,0,0,0-2.39-4.28,8.27,8.27,0,0,0-5.36-1.6H93.91l-9.5,23.72h21.67a14.69,14.69,0,0,0,6.63-1.6,20.73,20.73,0,0,0,5.84-4.3,18.64,18.64,0,0,0,3.88-6,11.42,11.42,0,0,0,.89-6m-10.41,6a7.61,7.61,0,0,1-1.32,2.18,7,7,0,0,1-1.94,1.57,4.8,4.8,0,0,1-2.33.59H96.92l3.47-8.68h10.4a2.63,2.63,0,0,1,1.86.58,2.25,2.25,0,0,1,.69,1.57,5,5,0,0,1-.43,2.19" transform="translate(0 0)"/><path class="cls-3" d="M158.26,16.23a5.26,5.26,0,0,0-2-3.24,6.69,6.69,0,0,0-4.14-1.2H128.61l-9.48,23.72h9.49l2.32-5.79h8.47l2.28,5.79h10.1l-2.65-6.66a15.79,15.79,0,0,0,5.16-3.26,13.35,13.35,0,0,0,3.4-4.84,7.67,7.67,0,0,0,.56-4.52m-10.08,4.52A3.12,3.12,0,0,1,147,22.17a2.83,2.83,0,0,1-1.71.59H133.72l1.61-4h11.58a1.36,1.36,0,0,1,1.24.59,1.53,1.53,0,0,1,0,1.44" transform="translate(0 0)"/><path class="cls-3" d="M163.08,35.51h-9.49l9.49-23.73h5.78a2.51,2.51,0,0,1,2.33,3.45Z" transform="translate(0 0)"/><path class="cls-3" d="M184.89,35.51H173.61l-.22-23.73h7.42a3.05,3.05,0,0,1,3,3.27L183,26.71l13.17-14.93h10.69Z" transform="translate(0 0)"/><polygon class="cls-3" points="260.59 35.51 249.9 35.51 242.62 21.01 236.82 35.5 227.32 35.5 236.81 11.78 249.88 11.78 255.54 24.35 260.57 11.78 270.08 11.78 260.59 35.51"/><polygon class="cls-3" points="225.23 35.51 198.13 35.51 207.62 11.78 234.72 11.78 232.29 17.85 214.69 17.85 213.48 20.89 229.2 20.89 227.01 26.38 211.28 26.38 210.06 29.41 227.67 29.41 225.23 35.51"/><path class="cls-4" d="M80.9,11.79,70.35,20.3l-3.71-8.51h-4A5.46,5.46,0,0,1,63,13.46a5.33,5.33,0,0,1-4.26,5.22l4.06,8.74-3.24,8.1H69l3.24-8.1L92.17,11.79Z" transform="translate(0 0)"/><path class="cls-4" d="M63.32,8.12C62.89,6.74,61.26,6.39,60,6.3a37.55,37.55,0,0,0-6.36.14L56.16.11,44.79.07,40.21,11.79H27.26l2-5.2L31,2.37c.48-1.27.28-2.28-2.16-2.3H24.5L1,0,17.69,5.2a1,1,0,0,1,.58,1.36L14.15,17.12a50.84,50.84,0,0,0-6.4,2.45,24.53,24.53,0,0,0-5.93,3.52,7.78,7.78,0,0,0-1.2,1.15A2.21,2.21,0,0,0,0,26c.54,2.27,5.43,2.45,9.9,2.14L7.1,35.45h11l3.4-8.82c4-.69,8-1.52,11.82-2.59.82-.23,1.64-.47,2.45-.72L31.09,35.45H42.48L49,18.53c1.92-.83,3.81-1.71,5.69-2.65a3.65,3.65,0,0,0,.56.55,3.75,3.75,0,0,0,2.8.84,3.84,3.84,0,0,0,3.43-4.2A4,4,0,0,0,61.15,12l.36-.3c1-.87,2.19-2.15,1.81-3.56m-2,.56a4.39,4.39,0,0,1-1.45,1.67,3.87,3.87,0,0,0-2.51-.71h-.12a3.84,3.84,0,0,0-3.43,4.18,126.38,126.38,0,0,1-17,6.63A180.2,180.2,0,0,1,12.32,26a55,55,0,0,1-6.11.61,18.76,18.76,0,0,1-3.9-.23,3.33,3.33,0,0,1-.79-.26.92.92,0,0,1-.45-.42c-.23-.68.67-1.6,1.23-2.11a24.51,24.51,0,0,1,4.56-3.05A55.3,55.3,0,0,1,14,17.49l-2.8,7.18c4.25-.62,8.14-1.29,12.11-2.17l.54-1.3L30,21a173.3,173.3,0,0,0,20.83-7.21l2.38-6.23,1.46-.06a18.51,18.51,0,0,1,5,.3,4.29,4.29,0,0,1,1.52.67.94.94,0,0,1,.15.17.23.23,0,0,1,0,.09" transform="translate(0 0)"/><polygon class="cls-3" points="5.07 51.7 8.48 42.85 10.56 42.81 9.2 46.29 11.95 46.24 13.3 42.77 15.37 42.73 11.95 51.59 9.88 51.62 11.23 48.11 8.49 48.16 7.14 51.67 5.07 51.7"/><polygon class="cls-3" points="17.65 51.66 18.84 48.61 18.27 42.86 20.35 42.82 20.61 46.5 20.7 46.5 23.8 42.76 25.95 42.73 20.9 48.58 19.72 51.63 17.65 51.66"/><path class="cls-3" d="M25.58,51.7,29,42.85l2.8-.05a8.08,8.08,0,0,1,2,.14,1.24,1.24,0,0,1,.91.58,1.86,1.86,0,0,1,.06,1.18,8.07,8.07,0,0,1-.3,1.1c-.13.42-.3.9-.5,1.44-.28.72-.53,1.33-.75,1.84a6.51,6.51,0,0,1-.7,1.26,2.71,2.71,0,0,1-.82.77,3.3,3.3,0,0,1-1.16.4,12.52,12.52,0,0,1-1.71.14ZM28.31,50l.77,0c.34,0,.62,0,.84,0a1.19,1.19,0,0,0,.56-.17,1.26,1.26,0,0,0,.43-.43,5.17,5.17,0,0,0,.42-.8c.15-.33.32-.77.53-1.31s.33-.86.44-1.18a5.62,5.62,0,0,0,.23-.78,1,1,0,0,0,0-.43.38.38,0,0,0-.21-.24,1.13,1.13,0,0,0-.45-.08H30.42Z" transform="translate(0 0)"/><path class="cls-3" d="M35.85,51.7l3.42-8.86,3.91-.06a3.48,3.48,0,0,1,1.35.18,1,1,0,0,1,.58.58,1.84,1.84,0,0,1,0,.94,3.28,3.28,0,0,1-.09.37c0,.13-.08.27-.13.42l-.16.45c-.13.31-.26.59-.39.85a4.51,4.51,0,0,1-.42.69,2.18,2.18,0,0,1-.53.52,3.46,3.46,0,0,1-.72.38l-.07,3.42-2.1,0,.21-3.16h-.41l-1.16,0-1.23,3.18Zm3.91-4.81,1.28,0a3.85,3.85,0,0,0,.68-.07.9.9,0,0,0,.42-.19,1.26,1.26,0,0,0,.29-.37,4.55,4.55,0,0,0,.25-.6,2.12,2.12,0,0,0,.15-.38A2.38,2.38,0,0,0,42.9,45a.45.45,0,0,0,0-.31.41.41,0,0,0-.26-.18,2.42,2.42,0,0,0-.61,0l-1.31,0Z" transform="translate(0 0)"/><path class="cls-3" d="M49.51,51.75a8.18,8.18,0,0,1-1.93-.15,1.24,1.24,0,0,1-.88-.6,1.93,1.93,0,0,1-.07-1.2A7.53,7.53,0,0,1,47,48.69c.15-.43.34-.92.55-1.49.28-.74.52-1.36.74-1.88a7.35,7.35,0,0,1,.68-1.27,2.9,2.9,0,0,1,.83-.81,3.37,3.37,0,0,1,1.16-.41,10.93,10.93,0,0,1,1.69-.14,8,8,0,0,1,1.91.15,1.28,1.28,0,0,1,.88.61,2,2,0,0,1,.07,1.2,10.32,10.32,0,0,1-.31,1.12c-.14.42-.32.91-.54,1.46q-.44,1.11-.78,1.89a7.56,7.56,0,0,1-.7,1.29,2.85,2.85,0,0,1-.81.78,3.26,3.26,0,0,1-1.14.41,10.4,10.4,0,0,1-1.67.15m.44-1.7a6.94,6.94,0,0,0,.73,0,1,1,0,0,0,.5-.17,1.45,1.45,0,0,0,.4-.44,6.51,6.51,0,0,0,.42-.84c.15-.35.33-.81.54-1.37s.37-.93.48-1.27a6.38,6.38,0,0,0,.24-.82.8.8,0,0,0,0-.51.42.42,0,0,0-.37-.18,5.27,5.27,0,0,0-.73,0,6.75,6.75,0,0,0-.71,0,1.29,1.29,0,0,0-.5.17,1.4,1.4,0,0,0-.41.45,6.51,6.51,0,0,0-.42.84c-.15.35-.33.81-.54,1.36-.13.35-.25.65-.36.92s-.18.51-.24.7-.1.36-.13.49a.77.77,0,0,0,0,.5.47.47,0,0,0,.37.18,5.33,5.33,0,0,0,.73,0" transform="translate(0 0)"/><path class="cls-3" d="M60.12,51.74a6.54,6.54,0,0,1-1.83-.18,1.37,1.37,0,0,1-.91-.72,2.35,2.35,0,0,1-.06-1.43,6.88,6.88,0,0,1,.26-1c.12-.37.28-.78.46-1.23.27-.71.52-1.32.78-1.84a6.57,6.57,0,0,1,.8-1.28,3.58,3.58,0,0,1,.94-.82,4,4,0,0,1,1.18-.43,8.82,8.82,0,0,1,1.58-.14c.3,0,.62,0,1,0l1,.08c.34,0,.64.08.91.14l-.6,1.57-.76-.06-.74-.06h-.59l-1.09,0a1.89,1.89,0,0,0-.76.17,1.72,1.72,0,0,0-.57.45,3.88,3.88,0,0,0-.49.84c-.17.36-.36.81-.56,1.37-.16.41-.29.77-.4,1.07s-.17.56-.22.78a1.18,1.18,0,0,0,0,.64.54.54,0,0,0,.39.3,3.56,3.56,0,0,0,.82.07l.32,0,.37,0a2,2,0,0,1,.32,0l.75-2-1.25,0,.59-1.55,3.12-.06L63,51.42a7.64,7.64,0,0,1-.94.16l-1,.11c-.34,0-.64.05-.91.05" transform="translate(0 0)"/><polygon class="cls-3" points="66.69 51.69 70.11 42.84 75.94 42.74 75.29 44.44 71.52 44.5 70.8 46.35 74 46.3 73.36 47.96 70.17 48.01 69.42 49.96 73.18 49.89 72.53 51.59 66.69 51.69"/><polygon class="cls-3" points="76.03 51.7 79.44 42.85 81.59 42.81 82.48 47.6 82.55 47.6 84.42 42.76 86.38 42.73 82.96 51.59 81 51.62 80.11 46.35 80.03 46.35 77.98 51.67 76.03 51.7"/><path class="cls-3" d="M91.92,51.7l3.42-8.86,3.91-.06a3.42,3.42,0,0,1,1.35.18.93.93,0,0,1,.58.58,1.94,1.94,0,0,1,0,.94,2.06,2.06,0,0,1-.1.37c0,.13-.08.27-.13.42l-.16.45c-.13.31-.26.59-.39.85a3.81,3.81,0,0,1-.41.69,2.61,2.61,0,0,1-.53.52,3.83,3.83,0,0,1-.73.38l-.07,3.42-2.1,0,.21-3.16h-.4l-1.16,0L94,51.66Zm3.92-4.81,1.28,0a3.72,3.72,0,0,0,.67-.07.9.9,0,0,0,.42-.19,1.11,1.11,0,0,0,.29-.37,4.46,4.46,0,0,0,.26-.6c.06-.14.11-.27.15-.38s0-.21.07-.29a.52.52,0,0,0,0-.31.4.4,0,0,0-.27-.18,2.29,2.29,0,0,0-.6,0l-1.32,0Z" transform="translate(0 0)"/><path class="cls-3" d="M101.31,51.71l6.09-8.9,2.8,0-.73,8.81-2,0,.15-1.74-3,.05-1.21,1.76Zm4.32-3.44,2.18,0,.32-3.52H108Z" transform="translate(0 0)"/><path class="cls-3" d="M115.8,51.74a6.07,6.07,0,0,1-1.69-.16,1.3,1.3,0,0,1-.86-.64,2.11,2.11,0,0,1-.07-1.28,9.35,9.35,0,0,1,.28-1c.12-.4.29-.85.49-1.34.31-.77.58-1.42.84-2a7.81,7.81,0,0,1,.77-1.32,3,3,0,0,1,.86-.79,3.43,3.43,0,0,1,1.13-.4,9.59,9.59,0,0,1,1.56-.13,6.66,6.66,0,0,1,.77,0c.27,0,.53,0,.77.06a5.74,5.74,0,0,1,.6.1l-.61,1.59-.68-.06-.51,0h-.39a7.88,7.88,0,0,0-.93.05,1.72,1.72,0,0,0-.64.2,1.53,1.53,0,0,0-.47.45,5.45,5.45,0,0,0-.45.83c-.16.36-.34.8-.53,1.33l-.43,1.13a7.08,7.08,0,0,0-.23.77.88.88,0,0,0,.05.61.69.69,0,0,0,.48.25,6.51,6.51,0,0,0,1,0c.25,0,.54,0,.86-.05a8,8,0,0,0,.85-.1L118,51.51l-.66.12c-.25,0-.51.06-.77.07l-.75,0" transform="translate(0 0)"/><polygon class="cls-3" points="121.41 51.66 124.83 42.81 126.91 42.77 123.49 51.63 121.41 51.66"/><polygon class="cls-3" points="127.28 51.7 130.7 42.85 132.84 42.81 133.73 47.6 133.8 47.6 135.68 42.76 137.63 42.73 134.21 51.59 132.26 51.62 131.37 46.35 131.28 46.35 129.24 51.67 127.28 51.7"/><path class="cls-3" d="M141.52,51.74a6.54,6.54,0,0,1-1.83-.18,1.37,1.37,0,0,1-.91-.72,2.35,2.35,0,0,1-.06-1.43,6.88,6.88,0,0,1,.26-1c.12-.37.28-.78.46-1.23.27-.71.52-1.32.78-1.84a6.57,6.57,0,0,1,.8-1.28,3.58,3.58,0,0,1,.94-.82,4,4,0,0,1,1.18-.43,8.82,8.82,0,0,1,1.58-.14c.3,0,.62,0,1,0l1,.08c.34,0,.64.08.91.14L147,44.5l-.76-.06-.74-.06h-.59l-1.09,0a1.89,1.89,0,0,0-.76.17,1.72,1.72,0,0,0-.57.45,3.88,3.88,0,0,0-.49.84c-.17.36-.36.81-.56,1.37-.16.41-.29.77-.4,1.07s-.17.56-.22.78a1.18,1.18,0,0,0,0,.64.54.54,0,0,0,.39.3,3.56,3.56,0,0,0,.82.07l.32,0,.37,0a2,2,0,0,1,.32,0l.75-2-1.25,0,.59-1.55,3.12-.06-1.91,4.93a7.64,7.64,0,0,1-.94.16l-1,.11c-.34,0-.64.05-.91.05" transform="translate(0 0)"/><polygon class="cls-3" points="154.85 51.66 157.59 44.58 155.29 44.62 155.98 42.85 162.64 42.73 161.95 44.51 159.66 44.55 156.93 51.63 154.85 51.66"/><polygon class="cls-3" points="162.36 51.69 165.78 42.84 171.61 42.74 170.96 44.44 167.19 44.5 166.47 46.35 169.67 46.3 169.02 47.96 165.83 48.01 165.09 49.96 168.84 49.89 168.19 51.59 162.36 51.69"/><path class="cls-3" d="M170.94,51.71l6.09-8.9,2.8,0-.73,8.81-2,0,.15-1.74-3,.05L173,51.68Zm4.32-3.44,2.18,0,.32-3.52h-.1Z" transform="translate(0 0)"/><polygon class="cls-3" points="182.15 51.72 185.56 42.87 188.35 42.82 188.07 48.03 188.16 48.03 191.91 42.76 194.73 42.71 191.31 51.57 189.33 51.6 191.54 45.85 191.45 45.85 187.38 51.63 186.01 51.66 186.39 45.94 186.28 45.94 184.06 51.69 182.15 51.72"/><polygon class="cls-3" points="201.86 51.66 204.6 44.58 202.3 44.62 202.99 42.85 209.65 42.73 208.96 44.51 206.67 44.55 203.94 51.63 201.86 51.66"/><polygon class="cls-3" points="210.51 51.71 212.08 42.89 214.09 42.85 212.89 49.09 212.98 49.09 216.76 42.81 218.88 42.77 217.87 49 217.98 49 221.5 42.73 223.62 42.69 218.34 51.58 215.77 51.62 216.6 46.15 216.49 46.15 213.07 51.67 210.51 51.71"/><polygon class="cls-3" points="223.33 51.69 226.75 42.84 232.59 42.74 231.93 44.44 228.16 44.5 227.44 46.35 230.64 46.3 230 47.96 226.81 48.01 226.06 49.96 229.82 49.89 229.17 51.59 223.33 51.69"/><polygon class="cls-3" points="232.67 51.7 236.09 42.85 238.23 42.81 239.12 47.6 239.19 47.6 241.06 42.76 243.02 42.73 239.6 51.59 237.65 51.62 236.75 46.35 236.67 46.35 234.62 51.67 232.67 51.7"/><polygon class="cls-3" points="244.99 51.66 247.73 44.58 245.43 44.62 246.12 42.85 252.78 42.73 252.09 44.51 249.8 44.55 247.07 51.63 244.99 51.66"/><polygon class="cls-3" points="252.5 51.69 255.92 42.84 261.75 42.74 261.1 44.44 257.33 44.5 256.61 46.35 259.81 46.3 259.16 47.96 255.97 48.01 255.23 49.96 258.98 49.89 258.33 51.59 252.5 51.69"/></g></svg>