<?xml version="1.0" encoding="UTF-8"?>
<!-- Generator: Adobe Illustrator 24.1.2, SVG Export Plug-In . SVG Version: 6.00 Build 0)  -->
<svg version="1.1" id="Laag_1" xmlns="http://www.w3.org/2000/svg" xmlns:xlink="http://www.w3.org/1999/xlink" x="0px" y="0px" viewBox="0 0 828.5 260.8" style="enable-background:new 0 0 828.5 260.8;" xml:space="preserve">
<style type="text/css">
	.st0{fill:#2a2a7f;}
</style>
<g>
	<path class="st0" d="M115.3,0c0,9.7,0,19.3,0,29c0,1.9-0.1,1.9-2,1.9c-18.6,0-37.1,0-55.7,0.1c-4.2,0-8.3,0.5-12.3,1.7   C35.7,35.6,32,45.3,37.2,54c2.6,4.3,6.2,7.4,10.2,10.2c9.1,6.3,18.6,12.1,27.8,18.2c6.9,4.5,13.8,8.9,20.7,13.4   c7.4,4.8,14,10.5,19,17.9c5.1,7.5,7.8,15.7,8,24.8c0.2,9.4-2,18.2-6.9,26.2c-7.4,12.1-18.2,19.5-32,22.7   c-5.2,1.2-10.4,1.9-15.7,2.1c-22.8,1-45.6,0.3-68.4,0.5c0-10.7,0-21.5,0-32.2c0.6,0,1.3,0,1.9,0c17.6,0,35.2,0,52.8,0   c5.9,0,11.8-0.3,17.7-1.6c3.6-0.8,7-1.9,9.9-4.3c4.9-4.1,5.7-9.5,4.4-15.3c-1-4.8-4-8.6-7.5-11.9c-3.5-3.4-7.4-6.3-11.4-9   c-13.6-8.9-27.3-17.8-41-26.8C20.1,84.2,14,78.9,9.3,72.2C2.7,62.8,0.1,52.4,1.2,41c1-10.4,5-19.3,12.6-26.4   c7.5-7.1,16.6-10.9,26.6-13c3.4-0.7,6.8-1,10.2-1.5C72.2,0,93.8,0,115.3,0z"/>
	<path class="st0" d="M526.2,0c0,0.7,0,1.4,0,2.1c0,41.1,0,82.2,0,123.4c0,8.2,1.8,15.9,6.2,22.9c5.5,8.7,13.6,13.6,23.7,15.2   c6.3,1,12.6,0.7,18.7-1.5c11.2-4,18.1-12,21.4-23.2c3.3-11.4,2.7-22.9-2.3-33.7c-5.5-12-15-18.8-28.1-20.4   c-9.2-1.1-17.8,1.1-26,5.2c-0.3,0.2-0.6,0.3-0.9,0.5c-0.6,0.3-1,0.2-1-0.6c0-0.3,0-0.5,0-0.8c0-8.4,0-16.9,0-25.3   c0-1.3,0.4-1.9,1.7-2.3c9.4-3.3,19.1-4.5,29-3.9c12.3,0.7,23.6,4.3,33.7,11.5c10.6,7.6,17.7,17.7,22,30c2.3,6.6,3.5,13.4,3.9,20.3   c0.9,14.1-1.4,27.6-8.2,40.1c-9.9,18.2-25.3,28.9-45.7,32.1c-14.4,2.3-28.4,0.3-41.4-6.3c-18.4-9.3-30-24-33.7-44.5   c-0.9-5.2-1.3-10.5-1.6-15.7c-0.4-8.2-0.2-16.4-0.2-24.5c0-32.8,0-65.5,0-98.3c0-0.7,0-1.4,0-2.1C507,0,516.6,0,526.2,0z"/>
	<path class="st0" d="M188.6,260.8c0-5.4,0-10.8,0-16.2c0-17.4,0-34.7,0-52.1c0-1.4-0.4-2-1.8-2.5c-8-2.4-15.4-6-21.8-11.4   c-8.3-6.9-13.6-15.6-16.6-25.8c-2.1-7.1-3.1-14.4-3.2-21.7c-0.4-23.5-0.1-46.9-0.2-70.4c0-1.8,0-1.8,1.8-1.8c8.4,0,16.8,0,25.2,0   c1.9,0,1.9,0,1.9,2c0,24.2,0,48.4,0,72.6c0,7.5,1.9,14.4,6.6,20.3c4.8,6.1,11.2,9.4,19,10.3c5,0.6,9.8,0.1,14.4-1.8   c8.5-3.4,13.8-9.8,16.5-18.4c1.1-3.7,1.6-7.4,1.6-11.3c0-23.9,0-47.8,0-71.7c0-2.1,0-2.1,2.1-2.1c8.4,0,16.7,0,25.1,0   c1.3,0,1.7,0.4,1.7,1.7c0,22.5,0,45.1-0.1,67.6c0,9.5-1.2,18.9-4.4,27.9c-4.5,12.6-12.6,22.2-24.4,28.6c-4.1,2.2-8.4,4-12.9,5.3   c-1.3,0.4-1.7,1-1.7,2.3c0,22.1,0,44.2,0,66.3c0,0.7,0,1.4,0,2.1C207.8,260.8,198.2,260.8,188.6,260.8z"/>
	<path class="st0" d="M828.5,189.9c-9,0-18,0-27,0c-1.9,0-1.9,0-1.9-1.9c0-62.2,0-124.4,0-186.6c0-0.5,0-0.9,0.1-1.4   c9.2,0,18.4,0,27.7,0c1,0,1.2,0.2,1.2,1.2C828.5,64.1,828.5,127,828.5,189.9z"/>
	<path class="st0" d="M393.7,147.4c0,13.5,0,26.9,0,40.4c0,2.1,0,2.1-2.1,2.1c-8.2,0-16.4,0-24.7,0c-2.1,0-2.1,0-2.1-2.1   c0-26,0-52,0-78c0-6.5-1.4-12.5-5.4-17.8c-4.1-5.5-9.6-8.4-16.4-9.3c-4.9-0.6-9.6-0.1-14.1,1.9c-8.1,3.7-12.5,10.3-14.2,18.8   c-0.5,2.3-0.6,4.5-0.6,6.8c0,25.7,0,51.3,0,77c0,0.5,0,1,0,1.4c0,0.8-0.4,1.2-1.2,1.2c-0.3,0-0.5,0-0.8,0c-8.3,0-16.6,0-24.9,0   c-1.9,0-2-0.1-2-1.9c0-23.8-0.1-47.7,0-71.5c0-10.2,1.6-20.1,5.7-29.5c7.5-17.2,20.7-27.1,39.2-29.8c7.3-1.1,14.6-1,21.7,1   c9.6,2.6,17.5,7.9,24.3,15c0.7,0.8,1.4,1.5,2.1,2.3c0.6,0.7,0.9,0.7,1.6,0c3.1-3.8,6.7-7.3,10.7-10.1c7.6-5.4,16.1-8.3,25.4-8.8   c9-0.4,17.8,0.9,26.1,4.4c9.8,4.2,17.2,11,22.5,20.2c4.6,8.1,7,16.9,8,26.1c0.5,4.4,0.5,8.8,0.5,13.2c0,22.4,0,44.8,0,67.3   c0,2.1,0,2.1-2.1,2.1c-8.3,0-16.6,0-24.9,0c-2.1,0-2.1,0-2.1-2.2c0-26.1,0-52.1,0-78.2c0-6.1-1.3-11.9-4.8-16.9   c-4.2-6.1-10.2-9.2-17.5-9.9c-5.5-0.6-10.7,0.3-15.5,3c-7.2,4.1-10.9,10.6-12.2,18.6c-0.3,1.7-0.3,3.4-0.3,5.2   C393.7,122.1,393.7,134.8,393.7,147.4z"/>
	<path class="st0" d="M713,192.3c-18.9-0.3-34.9-7.1-47.8-21c-9.9-10.7-15.9-23.3-17.6-37.8c-2.3-19,2-36.4,13.8-51.6   c10.6-13.7,24.6-22.1,41.8-24.7c13.6-2.1,26.8-0.1,39.1,6c12.3,6.1,21.6,15.4,28.2,27.3c5.3,9.5,8.1,19.7,8.6,30.6   c0.8,17.7-4.2,33.5-15.4,47.2c-11,13.4-25.1,21.3-42.4,23.5C718.7,192.2,715.9,192.3,713,192.3z M713.1,84.5c-1,0-1.9,0-2.9,0   c-0.9,0.1-1.7,0.2-2.6,0.3c-9.8,1.8-17.4,6.9-23.1,15c-5.7,8.1-8,17.1-7.5,27c0.4,6.8,2.1,13.3,5.7,19.1   c7.6,12.1,18.4,18.4,33,17.5c10-0.7,18.1-5.2,24.4-13c6.8-8.4,9.5-18.2,8.9-28.9c-0.5-8.8-3.4-16.7-8.9-23.5   C733.2,89.3,724.3,84.7,713.1,84.5z"/>
</g>
</svg>